<svg width="152" height="33" viewBox="0 0 152 33" fill="none" xmlns="http://www.w3.org/2000/svg">
<path d="M0.621094 26L4.24219 8.86719H8.97656L9.73828 21.6758H9.84375L16.2773 8.86719H21.2344L17.6133 26H14.332L16.0312 17.8906C16.1484 17.3516 16.2812 16.7734 16.4297 16.1562C16.5781 15.5391 16.7305 14.9297 16.8867 14.3281C17.043 13.7266 17.1836 13.1914 17.3086 12.7227H17.2031L10.5352 26H7.24219L6.52734 12.7227H6.43359C6.39453 13.0664 6.32812 13.5312 6.23438 14.1172C6.14062 14.7031 6.03125 15.3398 5.90625 16.0273C5.78906 16.707 5.66016 17.375 5.51953 18.0312L3.84375 26H0.621094ZM25.875 26.2344C25.2422 26.2344 24.6445 26.0781 24.082 25.7656C23.5195 25.4531 23.0586 24.9492 22.6992 24.2539C22.3477 23.5586 22.1719 22.6367 22.1719 21.4883C22.1719 20.6289 22.2617 19.7773 22.4414 18.9336C22.6289 18.0898 22.8945 17.293 23.2383 16.543C23.5898 15.7852 24.0117 15.1172 24.5039 14.5391C25.0039 13.9531 25.5664 13.4922 26.1914 13.1562C26.8242 12.8203 27.5078 12.6523 28.2422 12.6523C28.7969 12.6523 29.2812 12.7344 29.6953 12.8984C30.1094 13.0547 30.4648 13.2773 30.7617 13.5664C31.0586 13.8555 31.3008 14.1914 31.4883 14.5742H31.582L32.25 12.8984H34.9688L32.1797 26H29.543L29.707 24.3008H29.6133C29.3008 24.6836 28.9609 25.0195 28.5938 25.3086C28.2266 25.5977 27.8203 25.8242 27.375 25.9883C26.9297 26.1523 26.4297 26.2344 25.875 26.2344ZM27.2578 23.3867C27.7422 23.3867 28.1914 23.1992 28.6055 22.8242C29.0195 22.4414 29.375 21.9453 29.6719 21.3359C29.9688 20.7266 30.1797 20.082 30.3047 19.4023C30.3672 19.0898 30.4102 18.7773 30.4336 18.4648C30.4648 18.1445 30.4805 17.8008 30.4805 17.4336C30.4805 16.8789 30.332 16.4219 30.0352 16.0625C29.7461 15.6953 29.3477 15.5117 28.8398 15.5117C28.4961 15.5117 28.168 15.625 27.8555 15.8516C27.5508 16.0703 27.2695 16.375 27.0117 16.7656C26.7539 17.1484 26.5273 17.5898 26.332 18.0898C26.1445 18.582 26 19.1055 25.8984 19.6602C25.7969 20.2148 25.7461 20.7695 25.7461 21.3242C25.7461 22.0039 25.8789 22.5195 26.1445 22.8711C26.4102 23.2148 26.7812 23.3867 27.2578 23.3867ZM35.8242 26L38.6016 12.8984H41.2969L41.0508 15.3242H41.1797C41.5312 14.7695 41.9141 14.293 42.3281 13.8945C42.7422 13.4961 43.1914 13.1914 43.6758 12.9805C44.1602 12.7617 44.6875 12.6523 45.2578 12.6523C45.4453 12.6523 45.6445 12.6641 45.8555 12.6875C46.0742 12.7109 46.25 12.7422 46.3828 12.7812L45.6094 16.1797C45.4844 16.1328 45.3164 16.0898 45.1055 16.0508C44.9023 16.0117 44.6797 15.9922 44.4375 15.9922C44 15.9922 43.582 16.082 43.1836 16.2617C42.7852 16.4336 42.418 16.6914 42.082 17.0352C41.7461 17.3789 41.4492 17.8125 41.1914 18.3359C40.9414 18.8516 40.7422 19.4531 40.5938 20.1406L39.3516 26H35.8242ZM49.3125 31.7656C47.6875 31.7656 46.418 31.4688 45.5039 30.875C44.5977 30.2891 44.1445 29.4805 44.1445 28.4492C44.1445 27.6523 44.4141 26.9648 44.9531 26.3867C45.4844 25.8164 46.3203 25.3438 47.4609 24.9688C47.1719 24.7891 46.9531 24.5703 46.8047 24.3125C46.6641 24.0469 46.5938 23.7461 46.5938 23.4102C46.5938 22.8555 46.7656 22.3789 47.1094 21.9805C47.4609 21.5742 48.0352 21.1875 48.832 20.8203C48.3242 20.4375 47.9492 20 47.707 19.5078C47.4648 19.0156 47.3438 18.418 47.3438 17.7148C47.3438 16.9648 47.4609 16.2852 47.6953 15.6758C47.9375 15.0586 48.2812 14.5352 48.7266 14.1055C49.2031 13.6367 49.7852 13.2773 50.4727 13.0273C51.1602 12.7773 51.9414 12.6523 52.8164 12.6523C53.1367 12.6523 53.4609 12.6758 53.7891 12.7227C54.1172 12.7695 54.4414 12.8359 54.7617 12.9219H59.3906L58.9805 14.8672L56.9414 15.3477C57.0039 15.5508 57.0508 15.7695 57.082 16.0039C57.1133 16.2305 57.1289 16.4727 57.1289 16.7305C57.1289 17.4648 57.0117 18.1328 56.7773 18.7344C56.5508 19.3281 56.2227 19.8398 55.793 20.2695C55.3398 20.7227 54.7773 21.0703 54.1055 21.3125C53.4414 21.5547 52.6914 21.6758 51.8555 21.6758C51.6289 21.6758 51.418 21.668 51.2227 21.6523C51.0273 21.6289 50.8516 21.5977 50.6953 21.5586C50.3672 21.6602 50.1211 21.7891 49.957 21.9453C49.793 22.0938 49.7109 22.2695 49.7109 22.4727C49.7109 22.6523 49.7695 22.8008 49.8867 22.918C49.9961 23.0195 50.1523 23.1016 50.3555 23.1641C50.5586 23.2266 50.8086 23.2773 51.1055 23.3164L52.7109 23.5273C53.5625 23.6367 54.2539 23.8203 54.7852 24.0781C55.3242 24.3281 55.7227 24.668 55.9805 25.0977C56.2383 25.5195 56.3672 26.043 56.3672 26.668C56.3672 27.5195 56.2031 28.2656 55.875 28.9062C55.5469 29.5547 55.0625 30.0977 54.4219 30.5352C53.8281 30.9414 53.1016 31.2461 52.2422 31.4492C51.3828 31.6602 50.4062 31.7656 49.3125 31.7656ZM49.5234 29.3633C50.1719 29.3633 50.7344 29.3086 51.2109 29.1992C51.6953 29.0898 52.082 28.9297 52.3711 28.7188C52.6133 28.5469 52.793 28.3477 52.9102 28.1211C53.0352 27.8945 53.0977 27.6367 53.0977 27.3477C53.0977 27.2227 53.0781 27.1133 53.0391 27.0195C53.0078 26.9336 52.957 26.8555 52.8867 26.7852C52.7383 26.6289 52.5352 26.5117 52.2773 26.4336C52.0273 26.3633 51.7227 26.3047 51.3633 26.2578L49.7695 26.0703C49.2227 26.1406 48.7617 26.2617 48.3867 26.4336C48.0117 26.6133 47.7266 26.8359 47.5312 27.1016C47.3438 27.3672 47.25 27.6719 47.25 28.0156C47.25 28.4688 47.4375 28.8047 47.8125 29.0234C48.1953 29.25 48.7656 29.3633 49.5234 29.3633ZM51.8789 19.4258C52.2695 19.4258 52.6133 19.2891 52.9102 19.0156C53.207 18.7422 53.4375 18.3672 53.6016 17.8906C53.7656 17.4141 53.8477 16.8711 53.8477 16.2617C53.8477 16.0117 53.8164 15.7969 53.7539 15.6172C53.6992 15.4375 53.6172 15.293 53.5078 15.1836C53.4141 15.082 53.2969 15.0078 53.1562 14.9609C53.0234 14.9141 52.8672 14.8906 52.6875 14.8906C52.3828 14.8906 52.1055 14.9727 51.8555 15.1367C51.6133 15.293 51.4023 15.5156 51.2227 15.8047C51.0508 16.0859 50.9141 16.418 50.8125 16.8008C50.7188 17.1758 50.6719 17.5859 50.6719 18.0312C50.6719 18.1719 50.6797 18.3008 50.6953 18.418C50.7188 18.5352 50.7461 18.6445 50.7773 18.7461C50.9492 19.1992 51.3164 19.4258 51.8789 19.4258ZM63.2344 26.2344C62.6016 26.2344 62.0039 26.0781 61.4414 25.7656C60.8789 25.4531 60.418 24.9492 60.0586 24.2539C59.707 23.5508 59.5312 22.6211 59.5312 21.4648C59.5312 20.6133 59.6211 19.7656 59.8008 18.9219C59.9883 18.0781 60.2539 17.2812 60.5977 16.5312C60.9492 15.7734 61.3711 15.1055 61.8633 14.5273C62.3633 13.9414 62.9258 13.4844 63.5508 13.1562C64.1836 12.8203 64.8672 12.6523 65.6016 12.6523C66.125 12.6523 66.5664 12.7383 66.9258 12.9102C67.293 13.082 67.6094 13.3125 67.875 13.6016C68.1406 13.8906 68.375 14.2148 68.5781 14.5742H68.6719C68.6719 14.5273 68.6836 14.3555 68.707 14.0586C68.7305 13.7617 68.7656 13.4219 68.8125 13.0391C68.8594 12.6484 68.918 12.2891 68.9883 11.9609L69.8789 7.76562H73.4062L69.5391 26H66.8555L67.0664 24.3008H66.9727C66.6602 24.6836 66.3203 25.0195 65.9531 25.3086C65.5938 25.5977 65.1914 25.8242 64.7461 25.9883C64.3008 26.1523 63.7969 26.2344 63.2344 26.2344ZM64.7109 23.3867C65.0781 23.3867 65.4102 23.2891 65.707 23.0938C66.0117 22.8906 66.2773 22.625 66.5039 22.2969C66.7383 21.9609 66.9375 21.5859 67.1016 21.1719C67.2734 20.7578 67.4141 20.3359 67.5234 19.9062C67.6328 19.4688 67.7109 19.0469 67.7578 18.6406C67.8125 18.2344 67.8398 17.8789 67.8398 17.5742C67.8398 16.9492 67.6914 16.4492 67.3945 16.0742C67.1055 15.6992 66.707 15.5117 66.1992 15.5117C65.8555 15.5117 65.5273 15.625 65.2148 15.8516C64.9102 16.0703 64.6289 16.375 64.3711 16.7656C64.1133 17.1484 63.8867 17.5898 63.6914 18.0898C63.5039 18.582 63.3594 19.1055 63.2578 19.6602C63.1562 20.2148 63.1055 20.7695 63.1055 21.3242C63.1055 22.0039 63.2422 22.5195 63.5156 22.8711C63.7969 23.2148 64.1953 23.3867 64.7109 23.3867ZM77.5078 26.2344C76.875 26.2344 76.2773 26.0781 75.7148 25.7656C75.1523 25.4531 74.6914 24.9492 74.332 24.2539C73.9805 23.5586 73.8047 22.6367 73.8047 21.4883C73.8047 20.6289 73.8945 19.7773 74.0742 18.9336C74.2617 18.0898 74.5273 17.293 74.8711 16.543C75.2227 15.7852 75.6445 15.1172 76.1367 14.5391C76.6367 13.9531 77.1992 13.4922 77.8242 13.1562C78.457 12.8203 79.1406 12.6523 79.875 12.6523C80.4297 12.6523 80.9141 12.7344 81.3281 12.8984C81.7422 13.0547 82.0977 13.2773 82.3945 13.5664C82.6914 13.8555 82.9336 14.1914 83.1211 14.5742H83.2148L83.8828 12.8984H86.6016L83.8125 26H81.1758L81.3398 24.3008H81.2461C80.9336 24.6836 80.5938 25.0195 80.2266 25.3086C79.8594 25.5977 79.4531 25.8242 79.0078 25.9883C78.5625 26.1523 78.0625 26.2344 77.5078 26.2344ZM78.8906 23.3867C79.375 23.3867 79.8242 23.1992 80.2383 22.8242C80.6523 22.4414 81.0078 21.9453 81.3047 21.3359C81.6016 20.7266 81.8125 20.082 81.9375 19.4023C82 19.0898 82.043 18.7773 82.0664 18.4648C82.0977 18.1445 82.1133 17.8008 82.1133 17.4336C82.1133 16.8789 81.9648 16.4219 81.668 16.0625C81.3789 15.6953 80.9805 15.5117 80.4727 15.5117C80.1289 15.5117 79.8008 15.625 79.4883 15.8516C79.1836 16.0703 78.9023 16.375 78.6445 16.7656C78.3867 17.1484 78.1602 17.5898 77.9648 18.0898C77.7773 18.582 77.6328 19.1055 77.5312 19.6602C77.4297 20.2148 77.3789 20.7695 77.3789 21.3242C77.3789 22.0039 77.5117 22.5195 77.7773 22.8711C78.043 23.2148 78.4141 23.3867 78.8906 23.3867ZM87.457 26L90.2344 12.8984H92.9297L92.6836 15.3242H92.8125C93.1641 14.7695 93.5469 14.293 93.9609 13.8945C94.375 13.4961 94.8242 13.1914 95.3086 12.9805C95.793 12.7617 96.3203 12.6523 96.8906 12.6523C97.0781 12.6523 97.2773 12.6641 97.4883 12.6875C97.707 12.7109 97.8828 12.7422 98.0156 12.7812L97.2422 16.1797C97.1172 16.1328 96.9492 16.0898 96.7383 16.0508C96.5352 16.0117 96.3125 15.9922 96.0703 15.9922C95.6328 15.9922 95.2148 16.082 94.8164 16.2617C94.418 16.4336 94.0508 16.6914 93.7148 17.0352C93.3789 17.3789 93.082 17.8125 92.8242 18.3359C92.5742 18.8516 92.375 19.4531 92.2266 20.1406L90.9844 26H87.457ZM101.32 26.2344C100.484 26.2344 99.7539 26.1758 99.1289 26.0586C98.5117 25.9414 97.9336 25.7461 97.3945 25.4727V22.5664C97.9805 22.9023 98.582 23.1641 99.1992 23.3516C99.8242 23.5312 100.469 23.6211 101.133 23.6211C101.5 23.6211 101.844 23.5703 102.164 23.4688C102.492 23.3672 102.758 23.2109 102.961 23C103.164 22.7891 103.266 22.5234 103.266 22.2031C103.266 21.9844 103.215 21.7891 103.113 21.6172C103.012 21.4453 102.816 21.2578 102.527 21.0547C102.246 20.8438 101.836 20.5898 101.297 20.293C100.758 19.9883 100.297 19.6758 99.9141 19.3555C99.5391 19.0352 99.25 18.6719 99.0469 18.2656C98.8516 17.8594 98.7539 17.3828 98.7539 16.8359C98.7539 15.9297 98.9531 15.168 99.3516 14.5508C99.75 13.9258 100.32 13.4531 101.062 13.1328C101.812 12.8125 102.707 12.6523 103.746 12.6523C104.504 12.6523 105.234 12.7383 105.938 12.9102C106.641 13.082 107.328 13.3672 108 13.7656L106.84 16.2852C106.379 16.0039 105.887 15.7695 105.363 15.582C104.848 15.3945 104.332 15.3008 103.816 15.3008C103.434 15.3008 103.09 15.3906 102.785 15.5703C102.48 15.75 102.328 16.0273 102.328 16.4023C102.328 16.6055 102.383 16.793 102.492 16.9648C102.602 17.1289 102.785 17.2969 103.043 17.4688C103.309 17.6406 103.664 17.8438 104.109 18.0781C104.641 18.3516 105.109 18.6562 105.516 18.9922C105.93 19.3203 106.254 19.7031 106.488 20.1406C106.723 20.5703 106.84 21.082 106.84 21.6758C106.84 22.6758 106.613 23.5156 106.16 24.1953C105.707 24.8672 105.066 25.375 104.238 25.7188C103.418 26.0625 102.445 26.2344 101.32 26.2344ZM108.926 26L112.793 7.76562H116.32L115.641 10.9297C115.57 11.2891 115.473 11.6992 115.348 12.1602C115.23 12.6133 115.105 13.0625 114.973 13.5078C114.84 13.9453 114.719 14.3242 114.609 14.6445H114.703C115.023 14.2461 115.367 13.8984 115.734 13.6016C116.109 13.2969 116.516 13.0625 116.953 12.8984C117.391 12.7344 117.867 12.6523 118.383 12.6523C119.133 12.6523 119.758 12.8086 120.258 13.1211C120.766 13.4258 121.145 13.8594 121.395 14.4219C121.645 14.9844 121.77 15.6523 121.77 16.4258C121.77 16.7148 121.746 17.0391 121.699 17.3984C121.652 17.7578 121.586 18.1367 121.5 18.5352L119.941 26H116.414L118.02 18.3477C118.082 18.082 118.129 17.832 118.16 17.5977C118.191 17.3633 118.207 17.1484 118.207 16.9531C118.207 16.4609 118.102 16.0977 117.891 15.8633C117.68 15.6289 117.363 15.5117 116.941 15.5117C116.41 15.5117 115.93 15.7422 115.5 16.2031C115.07 16.6562 114.695 17.2656 114.375 18.0312C114.062 18.7969 113.805 19.6445 113.602 20.5742L112.453 26H108.926ZM127.758 26.2344C127.125 26.2344 126.527 26.0781 125.965 25.7656C125.402 25.4531 124.941 24.9492 124.582 24.2539C124.23 23.5586 124.055 22.6367 124.055 21.4883C124.055 20.6289 124.145 19.7773 124.324 18.9336C124.512 18.0898 124.777 17.293 125.121 16.543C125.473 15.7852 125.895 15.1172 126.387 14.5391C126.887 13.9531 127.449 13.4922 128.074 13.1562C128.707 12.8203 129.391 12.6523 130.125 12.6523C130.68 12.6523 131.164 12.7344 131.578 12.8984C131.992 13.0547 132.348 13.2773 132.645 13.5664C132.941 13.8555 133.184 14.1914 133.371 14.5742H133.465L134.133 12.8984H136.852L134.062 26H131.426L131.59 24.3008H131.496C131.184 24.6836 130.844 25.0195 130.477 25.3086C130.109 25.5977 129.703 25.8242 129.258 25.9883C128.812 26.1523 128.312 26.2344 127.758 26.2344ZM129.141 23.3867C129.625 23.3867 130.074 23.1992 130.488 22.8242C130.902 22.4414 131.258 21.9453 131.555 21.3359C131.852 20.7266 132.062 20.082 132.188 19.4023C132.25 19.0898 132.293 18.7773 132.316 18.4648C132.348 18.1445 132.363 17.8008 132.363 17.4336C132.363 16.8789 132.215 16.4219 131.918 16.0625C131.629 15.6953 131.23 15.5117 130.723 15.5117C130.379 15.5117 130.051 15.625 129.738 15.8516C129.434 16.0703 129.152 16.375 128.895 16.7656C128.637 17.1484 128.41 17.5898 128.215 18.0898C128.027 18.582 127.883 19.1055 127.781 19.6602C127.68 20.2148 127.629 20.7695 127.629 21.3242C127.629 22.0039 127.762 22.5195 128.027 22.8711C128.293 23.2148 128.664 23.3867 129.141 23.3867ZM137.707 26L140.484 12.8984H143.18L142.934 15.3242H143.039C143.375 14.8008 143.746 14.3398 144.152 13.9414C144.559 13.543 145.008 13.2305 145.5 13.0039C146 12.7695 146.555 12.6523 147.164 12.6523C147.914 12.6523 148.539 12.8086 149.039 13.1211C149.547 13.4258 149.926 13.8594 150.176 14.4219C150.426 14.9844 150.551 15.6523 150.551 16.4258C150.551 16.7148 150.527 17.0391 150.48 17.3984C150.434 17.7578 150.367 18.1367 150.281 18.5352L148.723 26H145.195L146.801 18.3477C146.863 18.082 146.91 17.832 146.941 17.5977C146.973 17.3633 146.988 17.1484 146.988 16.9531C146.988 16.4609 146.883 16.0977 146.672 15.8633C146.461 15.6289 146.145 15.5117 145.723 15.5117C145.191 15.5117 144.711 15.7422 144.281 16.2031C143.852 16.6562 143.477 17.2656 143.156 18.0312C142.844 18.7969 142.586 19.6445 142.383 20.5742L141.234 26H137.707Z" fill="black"/>
<rect x="55" width="37" height="3" fill="black"/>
</svg>
